<?xml version="1.0" standalone="no"?>
<!DOCTYPE svg PUBLIC "-//W3C//DTD SVG 20010904//EN"
 "http://www.w3.org/TR/2001/REC-SVG-20010904/DTD/svg10.dtd">
<svg version="1.0" xmlns="http://www.w3.org/2000/svg"
 width="991.000000pt" height="1280.000000pt" viewBox="0 0 991.000000 1280.000000"
 preserveAspectRatio="xMidYMid meet">
<metadata>
Created by potrace 1.15, written by Peter Selinger 2001-2017
</metadata>
<g transform="translate(0.000000,1280.000000) scale(0.100000,-0.100000)"
fill="#000000" stroke="none">
<path d="M4890 12357 c-35 -34 -52 -48 -37 -31 32 36 33 40 6 40 -40 0 -568
-573 -1115 -1211 -1958 -2282 -3133 -4238 -3330 -5545 -45 -295 -44 -728 2
-1090 177 -1399 922 -2621 2065 -3387 738 -495 1585 -753 2474 -753 962 0
1862 298 2655 879 760 557 1373 1405 1671 2316 232 707 309 1483 204 2045
-131 697 -488 1511 -1093 2490 -177 287 -645 981 -754 1120 l-20 25 21 3 c12
2 21 5 21 8 0 7 -243 335 -399 539 -296 387 -564 722 -860 1075 -534 635
-1289 1474 -1330 1476 -10 1 -23 4 -30 8 -20 13 -12 -7 16 -38 15 -17 -2 -3
-37 31 l-65 63 -65 -63z"/>
</g>
</svg>
